<svg width="117" height="116" xmlns="http://www.w3.org/2000/svg" xmlns:xlink="http://www.w3.org/1999/xlink" overflow="hidden"><defs><clipPath id="clip0"><rect x="470" y="905" width="117" height="116"/></clipPath></defs><g clip-path="url(#clip0)" transform="translate(-470 -905)"><path d="M2.84188 60.2492C2.84188 28.2161 28.9002 2.24878 61.0438 2.24878 93.1874 2.24878 119.246 28.2161 119.246 60.2492 119.246 92.2816 93.1874 118.25 61.0438 118.25 28.9001 118.25 2.84188 92.2816 2.84188 60.2492Z" fill="#FFD05D" transform="matrix(1.00484 0 0 1 467.158 902.75)"/><path d="M91.4944 10.7453C97.2897 19.7628 100.651 30.4841 100.651 41.9869 100.651 74.0197 74.5932 99.9871 42.4494 99.9871 31.2853 99.9871 20.8575 96.853 11.9988 91.4223 22.3425 107.515 40.4429 118.18 61.0438 118.18 93.1874 118.18 119.246 92.213 119.246 60.1801 119.246 39.273 108.143 20.9516 91.4944 10.7453Z" fill="#FDC453" transform="matrix(1.00484 0 0 1 467.158 902.75)"/><path d="M10.7524 66.3681C10.7524 36.6276 34.9456 12.5183 64.7897 12.5183 82.2335 12.5183 97.7441 20.7576 107.624 33.5423 98.2931 17.3992 80.8042 6.53093 60.7673 6.53093 30.9233 6.53093 6.73014 30.641 6.73014 60.3806 6.73014 72.7384 10.9098 84.1202 17.9321 93.2071 13.3658 85.3059 10.7524 76.1416 10.7524 66.3681Z" fill="#FFD77F" transform="matrix(1.00484 0 0 1 467.158 902.75)"/><path d="M76.4921 78.6038C76.4921 79.4587 76.4676 80.3111 76.4176 81.162 76.3681 82.0125 76.2941 82.857 76.1956 83.6952 76.0965 84.5339 75.974 85.3618 75.827 86.1799 75.6799 86.998 75.5098 87.8019 75.3162 88.5916 75.1226 89.3812 74.9064 90.1528 74.6682 90.9067 74.4295 91.6606 74.1697 92.3929 73.8888 93.1036 73.6075 93.8144 73.3065 94.5001 72.9854 95.1609 72.6648 95.8216 72.3252 96.454 71.9673 97.0583 71.6095 97.6627 71.2355 98.2362 70.8443 98.7784 70.4532 99.321 70.0473 99.8293 69.6263 100.304 69.2057 100.779 68.7724 101.218 68.3263 101.621 67.8798 102.024 67.4229 102.389 66.9558 102.716 66.4882 103.043 66.0122 103.331 65.5284 103.579 65.0441 103.827 64.5539 104.035 64.0579 104.201 63.5613 104.368 63.0614 104.493 62.558 104.577 62.0545 104.661 61.5497 104.703 61.0438 104.703 60.5379 104.703 60.0331 104.661 59.5297 104.577 59.0262 104.493 58.5263 104.368 58.0302 104.201 57.5337 104.035 57.0435 103.827 56.5592 103.579 56.0754 103.331 55.5994 103.043 55.1318 102.716 54.6647 102.389 54.2078 102.024 53.7618 101.621 53.3152 101.218 52.8819 100.779 52.4613 100.304 52.0403 99.8293 51.6344 99.321 51.2433 98.7784 50.8526 98.2362 50.4781 97.6627 50.1203 97.0583 49.7625 96.454 49.4233 95.8216 49.1022 95.1609 48.7811 94.5001 48.4801 93.8144 48.199 93.1036 47.9179 92.3929 47.6581 91.6606 47.4196 90.9067 47.1811 90.1528 46.965 89.3812 46.7714 88.5916 46.5778 87.8019 46.4076 86.998 46.2607 86.1799 46.1138 85.3618 45.991 84.5339 45.8923 83.6952 45.7936 82.857 45.7194 82.0125 45.6699 81.162 45.6203 80.3111 45.5955 79.4587 45.5955 78.6038 45.5955 77.7489 45.6203 76.8965 45.6699 76.0456 45.7194 75.1951 45.7936 74.3506 45.8923 73.5124 45.991 72.6737 46.1138 71.8458 46.2607 71.0277 46.4076 70.2096 46.5778 69.4057 46.7714 68.616 46.965 67.8263 47.1811 67.0548 47.4196 66.3009 47.6581 65.547 47.9179 64.8147 48.199 64.104 48.4801 63.3932 48.7811 62.7075 49.1022 62.0467 49.4233 61.3859 49.7625 60.7536 50.1203 60.1492 50.4781 59.5449 50.8526 58.9713 51.2438 58.4292 51.6344 57.8866 52.0403 57.3783 52.4613 56.9033 52.8819 56.4283 53.3152 55.9896 53.7618 55.5867 54.2078 55.1838 54.6647 54.8186 55.1318 54.4917 55.5994 54.1642 56.0754 53.877 56.5592 53.6285 57.0435 53.3804 57.5337 53.1731 58.0302 53.0064 58.5263 52.8398 59.0262 52.7143 59.5297 52.6305 60.0331 52.5466 60.5379 52.505 61.0438 52.505 61.5497 52.505 62.0545 52.5466 62.558 52.6305 63.0614 52.7143 63.5613 52.8398 64.0579 53.0064 64.5539 53.1731 65.0441 53.3804 65.5284 53.6285 66.0122 53.877 66.4882 54.1642 66.9558 54.4917 67.4229 54.8186 67.8798 55.1838 68.3263 55.5867 68.7724 55.9896 69.2057 56.4283 69.6263 56.9033 70.0473 57.3783 70.4532 57.8866 70.8443 58.4292 71.2355 58.9713 71.6095 59.5449 71.9673 60.1492 72.3252 60.7536 72.6648 61.3859 72.9854 62.0467 73.3065 62.7075 73.6075 63.3932 73.8888 64.104 74.1697 64.8147 74.4295 65.547 74.6682 66.3009 74.9064 67.0548 75.1226 67.8263 75.3162 68.616 75.5098 69.4057 75.6799 70.2096 75.827 71.0277 75.974 71.8458 76.0965 72.6737 76.1956 73.5124 76.2941 74.3506 76.3681 75.1951 76.4176 76.0456 76.4676 76.8965 76.4921 77.7489 76.4921 78.6038Z" fill="#695342" transform="matrix(1.00484 0 0 1 467.158 902.75)"/><path d="M74.0839 92.5914C62.8128 86.4201 53.6363 89.9185 48.3295 93.4232 51.1168 100.236 55.7705 104.703 61.0438 104.703 66.5284 104.703 71.3424 99.869 74.0839 92.5914Z" fill="#F06669" transform="matrix(1.00484 0 0 1 467.158 902.75)"/><path d="M46.343 52.6839C41.4805 62.5575 31.8475 67.7798 24.8265 64.3466 17.8055 60.9124 16.0557 50.1247 20.9182 40.2499 25.7807 30.3759 35.4144 25.1547 42.4354 28.5876 49.4556 32.0211 51.2055 42.8096 46.343 52.6839Z" fill="#FFFFFF" transform="matrix(1.00484 0 0 1 467.158 902.75)"/><path d="M75.7446 52.6839C80.6071 62.5575 90.24 67.7798 97.2613 64.3466 104.283 60.9124 106.032 50.1247 101.169 40.2499 96.3069 30.3759 86.6735 25.1547 79.6523 28.5876 72.632 32.0211 70.8821 42.8096 75.7446 52.6839Z" fill="#FFFFFF" transform="matrix(1.00484 0 0 1 467.158 902.75)"/><path d="M93.71 29.284C92.7669 29.284 92.0027 28.5231 92.0027 27.5828L92.0027 6.32756C92.0027 5.38794 92.7669 4.62641 93.71 4.62641 94.6526 4.62641 95.4168 5.38789 95.4168 6.32756L95.4168 27.5828C95.4168 28.5231 94.6526 29.284 93.71 29.284Z" fill="#414042" transform="matrix(1.00484 0 0 1 467.158 902.75)"/><path d="M101.586 25.8404C100.643 25.8404 99.8783 25.0789 99.8783 24.1392L99.8783 8.85274C99.8783 7.91307 100.643 7.15154 101.586 7.15154 102.529 7.15154 103.293 7.91307 103.293 8.85274L103.293 24.1392C103.293 25.079 102.529 25.8404 101.586 25.8404Z" fill="#414042" transform="matrix(1.00484 0 0 1 467.158 902.75)"/><path d="M109.532 37.1372C108.589 37.1372 107.825 36.3757 107.825 35.436L107.825 12.5395C107.825 11.5999 108.589 10.8383 109.532 10.8383 110.474 10.8383 111.239 11.5999 111.239 12.5395L111.239 35.436C111.239 36.3758 110.474 37.1372 109.532 37.1372Z" fill="#414042" transform="matrix(1.00484 0 0 1 467.158 902.75)"/><text font-family="Arial,Arial_MSFontService,sans-serif" font-weight="700" font-size="32" transform="matrix(0.773834 0 0 0.772284 107.298 876)">J<tspan font-size="32" x="14.4531" y="0">O</tspan><tspan font-size="32" x="38.8281" y="0">Y</tspan><tspan font-size="32" x="210.051" y="7.76916">S</tspan><tspan font-size="32" x="226.207" y="7.76916">A</tspan><tspan font-size="32" x="252.176" y="7.76916">D</tspan><tspan font-size="32" x="275.91" y="7.76916">N</tspan><tspan font-size="32" x="301.379" y="7.76916">E</tspan><tspan font-size="32" x="319.739" y="7.76916">S</tspan><tspan font-size="32" x="335.895" y="7.76916">S</tspan><tspan font-size="32" x="474.277" y="7.76916">A</tspan><tspan font-size="32" x="500.246" y="7.76916">N</tspan><tspan font-size="32" x="525.715" y="7.76916">G</tspan><tspan font-size="32" x="547.246" y="7.76916">E</tspan><tspan font-size="32" x="565.605" y="7.76916">R</tspan><tspan font-size="32" x="501.601" y="233.075">F</tspan><tspan font-size="32" x="520.57" y="233.075">E</tspan><tspan font-size="32" x="538.929" y="233.075">A</tspan><tspan font-size="32" x="564.898" y="233.075">R</tspan><tspan font-size="32" x="-55.3366" y="233.075">S</tspan><tspan font-size="32" x="-39.1804" y="233.075">U</tspan><tspan font-size="32" x="-14.196" y="233.075">R</tspan><tspan font-size="32" x="7.71032" y="233.075">P</tspan><tspan font-size="32" x="27.3822" y="233.075">R</tspan><tspan font-size="32" x="49.2884" y="233.075">I</tspan><tspan font-size="32" x="59.7104" y="233.075">S</tspan><tspan font-size="32" x="75.8664" y="233.075">E</tspan><tspan font-size="32" x="221.694" y="240.844">D</tspan><tspan font-size="32" x="245.429" y="240.844">I</tspan><tspan font-size="32" x="255.851" y="240.844">S</tspan><tspan font-size="32" x="272.007" y="240.844">G</tspan><tspan font-size="32" x="293.538" y="240.844">U</tspan><tspan font-size="32" x="318.522" y="240.844">S</tspan><tspan font-size="32" x="334.678" y="240.844">T</tspan></text></g></svg>