<svg width="84" height="124" xmlns="http://www.w3.org/2000/svg" xmlns:xlink="http://www.w3.org/1999/xlink" overflow="hidden"><defs><clipPath id="clip0"><rect x="223" y="374" width="84" height="124"/></clipPath></defs><g clip-path="url(#clip0)" transform="translate(-223 -374)"><path d="M138.11 106.006C143.649 106.006 148.139 110.497 148.139 116.036L148.139 207.339C148.139 212.878 143.649 217.368 138.11 217.368L79.3824 217.368C73.8433 217.368 69.3529 212.878 69.3529 207.339L69.3529 116.036C69.3529 110.497 73.8433 106.006 79.3824 106.006Z" stroke="#000000" stroke-width="4.67334" fill="#FFFFFF" fill-rule="evenodd" transform="matrix(1.00609 0 0 1 155.591 278.295)"/><path d="M134.695 113.24C139.515 113.24 143.422 117.147 143.422 121.966L143.422 201.408C143.422 206.228 139.515 210.135 134.695 210.135L82.797 210.135C77.9774 210.135 74.0704 206.228 74.0704 201.408L74.0704 121.966C74.0704 117.147 77.9774 113.24 82.797 113.24Z" fill="#00CC00" fill-rule="evenodd" transform="matrix(1.00609 0 0 1 155.591 278.295)"/><path d="M110.45 120.336 93.2834 142.239 109.858 142.534 98.6109 159.405 122.585 136.023 103.939 137.502Z" fill="#FFD42A" fill-rule="evenodd" transform="matrix(1.00609 0 0 1 156.408 300.047)"/><path d="M115.387 95.7049C117.114 95.7049 118.513 97.1046 118.513 98.8312L118.513 104.122C118.513 105.848 117.114 107.248 115.387 107.248L102.105 107.248C100.379 107.248 98.979 105.848 98.979 104.122L98.979 98.8312C98.979 97.1046 100.379 95.7049 102.105 95.7049Z" fill="#030303" fill-rule="evenodd" transform="matrix(1.00609 0 0 1 155.591 278.295)"/></g></svg>