<svg width="100" height="177" xmlns="http://www.w3.org/2000/svg" xmlns:xlink="http://www.w3.org/1999/xlink" overflow="hidden"><defs><clipPath id="clip0"><rect x="215" y="611" width="100" height="177"/></clipPath></defs><g clip-path="url(#clip0)" transform="translate(-215 -611)"><path d="M80.7414 185.026 80.7414 185.039 64.2845 185.523C57.487 206.579 81.0709 221.873 81.0709 221.873L81.0714 221.688 81.0728 221.832C81.0728 221.832 104.45 206.579 97.6519 185.523L81.1952 185.039 81.1952 185.026 80.968 185.032Z" fill="#FF7C00" fill-rule="evenodd" transform="matrix(1 0 0 1.2044 184.519 520.728)"/><path d="M80.0951 185.162 80.0951 185.171 68.9676 185.468C64.3713 198.367 80.3179 207.738 80.3179 207.738L80.3183 207.625 80.3192 207.713C80.3192 207.713 96.1257 198.368 91.5294 185.468L80.402 185.171 80.402 185.162 80.2483 185.165Z" fill="#FFDD55" fill-rule="evenodd" transform="matrix(1 0 0 1.2044 184.519 520.728)"/><path d="M55.9351 73.4791C28.7369 112.635 54.2458 161.548 54.2458 161.548L78.1247 161.936 78.1247 162.017 80.6047 161.977 83.085 162.017 83.085 161.936 106.964 161.548C106.964 161.548 132.514 112.676 105.316 73.5205L80.6047 73.1323Z" fill-rule="evenodd" transform="matrix(1 0 0 1.00161 184.519 558.856)"/><path d="M108.676 147.175 123.213 164.734 130.481 197.091 111.02 197.325 86.1667 184.898 102.11 183.96Z" fill="#FF0000" fill-rule="evenodd" transform="matrix(1 0 0 1.00161 184.519 558.856)"/><path d="M52.2862 146.569 37.7493 164.127 30.4807 196.484 49.9415 196.718 74.795 184.292 58.8513 183.353Z" fill="#FF0000" fill-rule="evenodd" transform="matrix(1 0 0 1.00161 184.519 558.856)"/><path d="M49.4357 161.079 111.804 161.079 111.804 184.76 49.4357 184.76Z" fill-rule="evenodd" transform="matrix(1 0 0 1.00161 184.519 558.856)"/><path d="M83.2359 147.011C83.2359 147.011 77.8431 147.48 78.0776 150.059L78.0776 196.718 83.0014 196.718Z" fill="#FF0000" fill-rule="evenodd" transform="matrix(1 0 0 1.00161 182.257 558.856)"/><path d="M82.5288 147.011C82.5288 147.011 87.9215 147.48 87.6871 150.059L87.6871 196.718 82.7632 196.718Z" fill="#FF0000" fill-rule="evenodd" transform="matrix(1 0 0 1.00161 182.257 558.856)"/><path d="M95.7237 100.139C95.7237 107.131 90.0551 112.8 83.0625 112.8 76.0699 112.8 70.4013 107.131 70.4013 100.139 70.4013 93.1462 76.0699 87.4776 83.0625 87.4776 90.0551 87.4776 95.7237 93.1462 95.7237 100.139Z" fill="#FFFFFF" fill-rule="evenodd" transform="matrix(1 0 0 1.00161 182.077 558.856)"/><path d="M89.3931 130.313C89.3931 133.81 86.5588 136.644 83.0625 136.644 79.5662 136.644 76.7319 133.81 76.7319 130.313 76.7319 126.817 79.5662 123.983 83.0625 123.983 86.5588 123.983 89.3931 126.817 89.3931 130.313Z" fill="#FFFFFF" fill-rule="evenodd" transform="matrix(1 0 0 1.00161 182.077 558.856)"/><path d="M80.5644 52.1062 80.5644 52.1078C71.9691 52.2415 55.8149 73.6594 55.8149 73.6594L80.5644 73.6594 80.6453 73.6594 105.395 73.6594C105.395 73.6594 89.2407 52.2417 80.6453 52.1077L80.6453 52.1061C80.6319 52.1061 80.6181 52.1065 80.6046 52.1066 80.5912 52.1065 80.5777 52.1061 80.5644 52.1061Z" fill="#FF0000" fill-rule="evenodd" transform="matrix(1 0 0 1.00161 184.519 558.856)"/></g></svg>