<svg width="117" height="117" xmlns="http://www.w3.org/2000/svg" xmlns:xlink="http://www.w3.org/1999/xlink" overflow="hidden"><defs><clipPath id="clip0"><rect x="1260" y="641" width="117" height="117"/></clipPath></defs><g clip-path="url(#clip0)" transform="translate(-1260 -641)"><path d="M1377 699.5C1377 731.675 1350.67 758 1318.5 758 1286.32 758 1260 731.675 1260 699.5 1260 667.325 1286.32 641 1318.5 641 1350.67 641 1377 667.325 1377 699.5Z" fill="#FFCA28"/><path d="M1341.9 740.45C1338.9 731.994 1329.56 725.825 1318.5 725.825 1307.44 725.825 1298.1 731.994 1295.1 740.45Z" fill="#3E2723"/><path d="M1336.03 740.45C1332.17 735.147 1325.76 731.675 1318.5 731.675 1311.24 731.675 1304.83 735.147 1300.97 740.45Z" fill="#5D4037"/><path d="M1318.5 731.675C1315.35 731.675 1312.4 732.371 1309.72 733.553L1309.72 743.375C1309.72 748.222 1313.65 752.15 1318.5 752.15 1323.35 752.15 1327.27 748.222 1327.27 743.375L1327.27 733.553C1324.59 732.371 1321.64 731.675 1318.5 731.675Z" fill="#DD2C00"/><path d="M1309.72 740.45 1309.72 743.375C1309.72 748.222 1313.65 752.15 1318.5 752.15 1323.35 752.15 1327.27 748.222 1327.27 743.375L1327.27 740.45Z" fill="#FF3D00"/><path d="M1284.71 713.818 1282.09 708.585 1299.85 699.705 1285.17 693.413 1287.48 688.037 1313.75 699.295Z" fill="#B76C09"/><path d="M1352.29 713.818 1323.25 699.295 1349.52 688.037 1351.83 693.413 1337.15 699.705 1354.91 708.585Z" fill="#B76C09"/><text font-family="Arial,Arial_MSFontService,sans-serif" font-weight="700" font-size="32" transform="matrix(0.761353 0 0 0.761353 1101.79 613)">J<tspan font-size="32" x="14.4531" y="0">O</tspan><tspan font-size="32" x="38.8281" y="0">Y</tspan><tspan font-size="32" x="210.051" y="7.88071">S</tspan><tspan font-size="32" x="226.207" y="7.88071">A</tspan><tspan font-size="32" x="252.176" y="7.88071">D</tspan><tspan font-size="32" x="275.91" y="7.88071">N</tspan><tspan font-size="32" x="301.379" y="7.88071">E</tspan><tspan font-size="32" x="319.739" y="7.88071">S</tspan><tspan font-size="32" x="335.895" y="7.88071">S</tspan><tspan font-size="32" x="474.277" y="7.88071">A</tspan><tspan font-size="32" x="500.246" y="7.88071">N</tspan><tspan font-size="32" x="525.715" y="7.88071">G</tspan><tspan font-size="32" x="547.246" y="7.88071">E</tspan><tspan font-size="32" x="565.605" y="7.88071">R</tspan><tspan font-size="32" x="501.601" y="233.794">F</tspan><tspan font-size="32" x="520.57" y="233.794">E</tspan><tspan font-size="32" x="538.929" y="233.794">A</tspan><tspan font-size="32" x="564.898" y="233.794">R</tspan><tspan font-size="32" x="-55.3367" y="233.794">S</tspan><tspan font-size="32" x="-39.1804" y="233.794">U</tspan><tspan font-size="32" x="-14.1961" y="233.794">R</tspan><tspan font-size="32" x="7.71028" y="233.794">P</tspan><tspan font-size="32" x="27.3822" y="233.794">R</tspan><tspan font-size="32" x="49.2884" y="233.794">I</tspan><tspan font-size="32" x="59.7104" y="233.794">S</tspan><tspan font-size="32" x="75.8664" y="233.794">E</tspan><tspan font-size="32" x="221.694" y="240.362">D</tspan><tspan font-size="32" x="245.429" y="240.362">I</tspan><tspan font-size="32" x="255.851" y="240.362">S</tspan><tspan font-size="32" x="272.007" y="240.362">G</tspan><tspan font-size="32" x="293.538" y="240.362">U</tspan><tspan font-size="32" x="318.522" y="240.362">S</tspan><tspan font-size="32" x="334.678" y="240.362">T</tspan></text></g></svg>