<svg width="117" height="117" xmlns="http://www.w3.org/2000/svg" xmlns:xlink="http://www.w3.org/1999/xlink" overflow="hidden"><defs><clipPath id="clip0"><rect x="207" y="905" width="117" height="117"/></clipPath></defs><g clip-path="url(#clip0)" transform="translate(-207 -905)"><path d="M323.999 963.5C323.999 995.809 297.808 1022 265.5 1022 233.195 1022 207 995.809 207 963.5 207 931.195 233.195 905.001 265.5 905.001 297.808 905.001 323.999 931.195 323.999 963.5" fill="#FFCC4D"/><path d="M281.75 992.75C281.75 993.389 281.724 994.026 281.671 994.662 281.619 995.297 281.541 995.928 281.437 996.554 281.334 997.181 281.204 997.8 281.05 998.411 280.895 999.022 280.716 999.622 280.513 1000.21 280.309 1000.8 280.082 1001.38 279.831 1001.94 279.58 1002.51 279.307 1003.05 279.011 1003.58 278.715 1004.11 278.399 1004.63 278.061 1005.12 277.724 1005.61 277.366 1006.09 276.99 1006.54 276.614 1006.99 276.22 1007.42 275.809 1007.82 275.397 1008.23 274.97 1008.61 274.527 1008.96 274.085 1009.32 273.629 1009.65 273.16 1009.95 272.691 1010.25 272.21 1010.52 271.718 1010.77 271.226 1011.01 270.726 1011.23 270.217 1011.41 269.707 1011.6 269.192 1011.75 268.67 1011.88 268.148 1012 267.622 1012.09 267.092 1012.16 266.563 1012.22 266.032 1012.25 265.5 1012.25 264.967 1012.25 264.437 1012.22 263.907 1012.16 263.377 1012.09 262.852 1012 262.329 1011.88 261.807 1011.75 261.292 1011.6 260.783 1011.41 260.273 1011.23 259.773 1011.01 259.281 1010.77 258.789 1010.52 258.309 1010.25 257.839 1009.95 257.37 1009.65 256.914 1009.32 256.471 1008.96 256.029 1008.61 255.602 1008.23 255.191 1007.82 254.779 1007.42 254.386 1006.99 254.009 1006.54 253.633 1006.09 253.276 1005.61 252.938 1005.12 252.601 1004.63 252.284 1004.11 251.988 1003.58 251.693 1003.05 251.419 1002.51 251.168 1001.94 250.918 1001.38 250.69 1000.8 250.487 1000.21 250.283 999.623 250.104 999.022 249.949 998.411 249.795 997.8 249.666 997.181 249.562 996.554 249.458 995.928 249.38 995.297 249.328 994.662 249.276 994.026 249.25 993.389 249.25 992.75 249.25 992.112 249.276 991.475 249.328 990.839 249.38 990.203 249.458 989.573 249.562 988.946 249.666 988.32 249.795 987.701 249.949 987.09 250.104 986.479 250.283 985.878 250.487 985.288 250.69 984.698 250.918 984.121 251.168 983.558 251.419 982.995 251.693 982.448 251.988 981.917 252.284 981.386 252.601 980.873 252.938 980.38 253.276 979.886 253.633 979.413 254.009 978.962 254.386 978.51 254.779 978.082 255.191 977.677 255.602 977.272 256.029 976.892 256.471 976.537 256.914 976.182 257.37 975.854 257.839 975.553 258.309 975.252 258.789 974.979 259.281 974.735 259.773 974.49 260.273 974.275 260.783 974.09 261.292 973.905 261.807 973.75 262.329 973.625 262.852 973.5 263.377 973.407 263.907 973.344 264.437 973.282 264.967 973.25 265.5 973.25 266.032 973.25 266.563 973.282 267.092 973.344 267.622 973.407 268.148 973.501 268.67 973.625 269.192 973.75 269.707 973.905 270.217 974.09 270.726 974.275 271.226 974.49 271.718 974.735 272.21 974.979 272.691 975.252 273.16 975.553 273.629 975.854 274.085 976.182 274.527 976.537 274.97 976.891 275.397 977.272 275.809 977.677 276.22 978.082 276.614 978.51 276.99 978.962 277.366 979.413 277.724 979.886 278.061 980.38 278.399 980.873 278.715 981.386 279.011 981.917 279.307 982.448 279.58 982.995 279.831 983.558 280.082 984.121 280.309 984.698 280.513 985.288 280.716 985.878 280.895 986.479 281.05 987.09 281.204 987.701 281.334 988.32 281.437 988.946 281.541 989.573 281.619 990.203 281.671 990.839 281.724 991.475 281.75 992.112 281.75 992.75Z" fill="#664500"/><path d="M226.496 940.75C225.82 940.75 225.135 940.539 224.55 940.1 223.113 939.025 222.824 936.987 223.9 935.55 234.501 921.413 248.652 921.25 249.25 921.25 251.044 921.25 252.5 922.706 252.5 924.5 252.5 926.291 251.053 927.744 249.263 927.75 248.759 927.757 237.667 928.03 229.1 939.45 228.463 940.302 227.484 940.75 226.496 940.75ZM304.503 940.75C303.512 940.75 302.54 940.302 301.9 939.45 293.32 928.007 282.201 927.757 281.73 927.75 279.943 927.731 278.5 926.268 278.509 924.484 278.519 922.693 279.962 921.25 281.75 921.25 282.348 921.25 296.495 921.413 307.1 935.55 308.179 936.987 307.886 939.025 306.45 940.1 305.865 940.539 305.182 940.75 304.503 940.75Z" fill="#664500"/><path d="M265.5 979.75C260.114 979.75 255.75 985.568 255.75 992.75L275.25 992.75C275.25 985.568 270.885 979.75 265.5 979.75Z" fill="#F5F8FA"/><path d="M254.125 952.125C254.125 952.498 254.112 952.87 254.086 953.24 254.06 953.611 254.02 953.979 253.969 954.345 253.917 954.71 253.852 955.071 253.775 955.427 253.698 955.784 253.608 956.134 253.506 956.478 253.404 956.823 253.291 957.159 253.165 957.488 253.04 957.816 252.903 958.135 252.755 958.445 252.608 958.755 252.449 959.054 252.28 959.342 252.112 959.63 251.933 959.905 251.745 960.169 251.557 960.432 251.36 960.682 251.154 960.918 250.948 961.155 250.735 961.377 250.514 961.583 250.292 961.79 250.064 961.982 249.83 962.157 249.595 962.333 249.355 962.492 249.109 962.635 248.863 962.777 248.613 962.902 248.358 963.011 248.104 963.119 247.846 963.209 247.585 963.282 247.324 963.354 247.061 963.409 246.796 963.445 246.531 963.482 246.266 963.5 246 963.5 245.734 963.5 245.468 963.482 245.203 963.446 244.939 963.409 244.676 963.354 244.415 963.282 244.154 963.209 243.896 963.119 243.641 963.011 243.386 962.902 243.136 962.777 242.89 962.635 242.644 962.492 242.404 962.333 242.17 962.157 241.935 961.982 241.707 961.79 241.486 961.584 241.264 961.377 241.051 961.155 240.845 960.918 240.639 960.682 240.443 960.432 240.254 960.169 240.066 959.905 239.888 959.63 239.719 959.342 239.55 959.054 239.392 958.755 239.244 958.445 239.096 958.135 238.96 957.816 238.834 957.488 238.709 957.159 238.595 956.823 238.493 956.478 238.391 956.134 238.302 955.784 238.225 955.427 238.147 955.071 238.083 954.71 238.031 954.345 237.979 953.979 237.94 953.611 237.914 953.24 237.888 952.87 237.875 952.498 237.875 952.125 237.875 951.753 237.888 951.381 237.914 951.01 237.94 950.64 237.979 950.272 238.031 949.906 238.083 949.541 238.147 949.18 238.225 948.823 238.302 948.467 238.391 948.117 238.493 947.772 238.595 947.428 238.709 947.092 238.834 946.763 238.96 946.435 239.096 946.116 239.244 945.806 239.392 945.496 239.55 945.197 239.719 944.909 239.888 944.621 240.066 944.346 240.254 944.082 240.443 943.819 240.639 943.569 240.845 943.333 241.051 943.096 241.264 942.874 241.486 942.668 241.707 942.461 241.935 942.269 242.17 942.094 242.404 941.918 242.644 941.759 242.89 941.616 243.136 941.474 243.386 941.348 243.641 941.24 243.896 941.132 244.154 941.042 244.415 940.969 244.676 940.896 244.939 940.842 245.203 940.805 245.468 940.769 245.734 940.75 246 940.75 246.266 940.75 246.531 940.769 246.796 940.805 247.061 940.842 247.324 940.896 247.585 940.969 247.846 941.042 248.104 941.132 248.358 941.24 248.613 941.348 248.863 941.474 249.109 941.616 249.355 941.759 249.595 941.918 249.83 942.094 250.064 942.269 250.292 942.461 250.514 942.668 250.735 942.874 250.948 943.096 251.154 943.333 251.36 943.569 251.557 943.819 251.745 944.082 251.933 944.346 252.112 944.621 252.28 944.909 252.449 945.197 252.608 945.496 252.755 945.806 252.903 946.116 253.04 946.435 253.165 946.763 253.291 947.092 253.404 947.428 253.506 947.772 253.608 948.117 253.698 948.467 253.775 948.823 253.852 949.18 253.917 949.541 253.969 949.906 254.02 950.272 254.059 950.64 254.086 951.01 254.112 951.381 254.125 951.753 254.125 952.125Z" fill="#664500"/><path d="M293.125 952.125C293.125 952.498 293.112 952.87 293.086 953.24 293.06 953.611 293.02 953.979 292.969 954.345 292.917 954.71 292.852 955.071 292.775 955.427 292.698 955.784 292.608 956.134 292.506 956.478 292.404 956.823 292.291 957.159 292.165 957.488 292.04 957.816 291.903 958.135 291.755 958.445 291.607 958.755 291.449 959.054 291.28 959.342 291.112 959.63 290.933 959.905 290.745 960.169 290.557 960.432 290.36 960.682 290.154 960.918 289.948 961.155 289.735 961.377 289.513 961.583 289.292 961.79 289.064 961.982 288.83 962.157 288.595 962.333 288.355 962.492 288.109 962.635 287.863 962.777 287.613 962.902 287.358 963.011 287.104 963.119 286.846 963.209 286.585 963.282 286.324 963.354 286.061 963.409 285.796 963.445 285.531 963.482 285.266 963.5 285 963.5 284.733 963.5 284.468 963.482 284.203 963.446 283.938 963.409 283.676 963.354 283.415 963.282 283.154 963.209 282.896 963.119 282.641 963.011 282.386 962.902 282.136 962.777 281.89 962.635 281.644 962.492 281.404 962.333 281.169 962.157 280.935 961.982 280.707 961.79 280.486 961.584 280.264 961.377 280.051 961.155 279.845 960.918 279.639 960.682 279.442 960.432 279.254 960.169 279.066 959.905 278.888 959.63 278.719 959.342 278.55 959.054 278.392 958.755 278.244 958.445 278.096 958.135 277.959 957.816 277.834 957.488 277.709 957.159 277.595 956.823 277.493 956.478 277.391 956.134 277.302 955.784 277.225 955.427 277.147 955.071 277.083 954.71 277.031 954.345 276.979 953.979 276.94 953.611 276.914 953.24 276.888 952.87 276.875 952.498 276.875 952.125 276.875 951.753 276.888 951.381 276.914 951.01 276.94 950.64 276.979 950.272 277.031 949.906 277.083 949.541 277.147 949.18 277.225 948.823 277.302 948.467 277.391 948.117 277.493 947.772 277.595 947.428 277.709 947.092 277.834 946.763 277.959 946.435 278.096 946.116 278.244 945.806 278.392 945.496 278.55 945.197 278.719 944.909 278.888 944.621 279.066 944.346 279.254 944.082 279.442 943.819 279.639 943.569 279.845 943.333 280.051 943.096 280.264 942.874 280.486 942.668 280.707 942.461 280.935 942.269 281.169 942.094 281.404 941.918 281.644 941.759 281.89 941.616 282.136 941.474 282.386 941.348 282.641 941.24 282.896 941.132 283.154 941.042 283.415 940.969 283.676 940.896 283.938 940.842 284.203 940.805 284.468 940.769 284.733 940.75 285 940.75 285.266 940.75 285.531 940.769 285.796 940.805 286.061 940.842 286.324 940.896 286.585 940.969 286.846 941.042 287.104 941.132 287.358 941.24 287.613 941.348 287.863 941.474 288.109 941.616 288.355 941.759 288.595 941.918 288.83 942.094 289.064 942.269 289.292 942.461 289.513 942.668 289.735 942.874 289.948 943.096 290.154 943.333 290.36 943.569 290.557 943.819 290.745 944.082 290.933 944.346 291.112 944.621 291.28 944.909 291.449 945.197 291.607 945.496 291.755 945.806 291.903 946.116 292.04 946.435 292.165 946.763 292.291 947.092 292.404 947.428 292.506 947.772 292.608 948.117 292.698 948.467 292.775 948.823 292.852 949.18 292.917 949.541 292.969 949.906 293.02 950.272 293.059 950.64 293.086 951.01 293.112 951.381 293.125 951.753 293.125 952.125Z" fill="#664500"/><text font-family="Arial,Arial_MSFontService,sans-serif" font-weight="700" font-size="32" transform="matrix(0.771305 0 0 0.771305 246.351 877)">J<tspan font-size="32" x="14.4531" y="0">O</tspan><tspan font-size="32" x="38.8281" y="0">Y</tspan><tspan font-size="32" x="210.051" y="7.77903">S</tspan><tspan font-size="32" x="226.207" y="7.77903">A</tspan><tspan font-size="32" x="252.176" y="7.77903">D</tspan><tspan font-size="32" x="275.91" y="7.77903">N</tspan><tspan font-size="32" x="301.379" y="7.77903">E</tspan><tspan font-size="32" x="319.739" y="7.77903">S</tspan><tspan font-size="32" x="335.895" y="7.77903">S</tspan><tspan font-size="32" x="474.277" y="7.77903">A</tspan><tspan font-size="32" x="500.246" y="7.77903">N</tspan><tspan font-size="32" x="525.715" y="7.77903">G</tspan><tspan font-size="32" x="547.246" y="7.77903">E</tspan><tspan font-size="32" x="565.605" y="7.77903">R</tspan><tspan font-size="32" x="501.601" y="233.371">F</tspan><tspan font-size="32" x="520.57" y="233.371">E</tspan><tspan font-size="32" x="538.93" y="233.371">A</tspan><tspan font-size="32" x="564.898" y="233.371">R</tspan><tspan font-size="32" x="-55.3366" y="233.371">S</tspan><tspan font-size="32" x="-39.1804" y="233.371">U</tspan><tspan font-size="32" x="-14.196" y="233.371">R</tspan><tspan font-size="32" x="7.71032" y="233.371">P</tspan><tspan font-size="32" x="27.3822" y="233.371">R</tspan><tspan font-size="32" x="49.2884" y="233.371">I</tspan><tspan font-size="32" x="59.7104" y="233.371">S</tspan><tspan font-size="32" x="75.8664" y="233.371">E</tspan><tspan font-size="32" x="221.694" y="239.853">D</tspan><tspan font-size="32" x="245.429" y="239.853">I</tspan><tspan font-size="32" x="255.851" y="239.853">S</tspan><tspan font-size="32" x="272.007" y="239.853">G</tspan><tspan font-size="32" x="293.538" y="239.853">U</tspan><tspan font-size="32" x="318.522" y="239.853">S</tspan><tspan font-size="32" x="334.678" y="239.853">T</tspan></text></g></svg>