<svg width="95" height="142" xmlns="http://www.w3.org/2000/svg" xmlns:xlink="http://www.w3.org/1999/xlink" overflow="hidden"><defs><clipPath id="clip0"><rect x="218" y="101" width="95" height="142"/></clipPath></defs><g clip-path="url(#clip0)" transform="translate(-218 -101)"><path d="M268.258 298.429 278.753 298.429 278.753 440.429 268.258 440.429Z" fill-rule="evenodd" transform="matrix(1.00352 0 0 1 -50.9992 -197.429)"/><path d="M273.613 306.232 360.325 306.232 360.325 373.268 273.613 373.268Z" stroke="#000000" stroke-width="4.38686" fill="#FFD42A" fill-rule="evenodd" transform="matrix(1.00352 0 0 1 -50.9992 -197.429)"/><path d="M275.086 307.998 296.074 307.998 296.074 329.525 275.086 329.525Z" fill-rule="evenodd" transform="matrix(1.00352 0 0 1 -50.9992 -197.429)"/><path d="M275.086 350.632 296.074 350.632 296.074 372.159 275.086 372.159Z" fill-rule="evenodd" transform="matrix(1.00352 0 0 1 -50.9992 -197.429)"/><path d="M296.135 329.643 317.123 329.643 317.123 351.169 296.135 351.169Z" fill-rule="evenodd" transform="matrix(1.00352 0 0 1 -50.9992 -197.757)"/><path d="M275.086 307.998 296.074 307.998 296.074 329.525 275.086 329.525Z" fill-rule="evenodd" transform="matrix(1.00352 0 0 1 -9.17443 -197.429)"/><path d="M275.086 350.632 296.074 350.632 296.074 372.159 275.086 372.159Z" fill-rule="evenodd" transform="matrix(1.00352 0 0 1 -9.17443 -197.429)"/><path d="M296.135 329.643 317.123 329.643 317.123 351.169 296.135 351.169Z" fill-rule="evenodd" transform="matrix(1.00352 0 0 1 -9.17443 -197.757)"/></g></svg>