<svg width="226" height="226" xmlns="http://www.w3.org/2000/svg" xmlns:xlink="http://www.w3.org/1999/xlink" overflow="hidden"><defs><clipPath id="clip0"><rect x="678" y="323" width="226" height="226"/></clipPath><clipPath id="clip1"><path d="M770.58 323.77 903.541 417.983 811.265 548.21 678.304 453.997Z" fill-rule="evenodd" clip-rule="evenodd"/></clipPath><clipPath id="clip2"><path d="M770.58 323.77 903.541 417.983 811.265 548.21 678.304 453.997Z" fill-rule="evenodd" clip-rule="evenodd"/></clipPath><clipPath id="clip3"><path d="M770.58 323.77 903.541 417.983 811.265 548.21 678.304 453.997Z" fill-rule="evenodd" clip-rule="evenodd"/></clipPath></defs><g clip-path="url(#clip0)" transform="translate(-678 -323)"><g clip-path="url(#clip1)"><g clip-path="url(#clip2)"><g clip-path="url(#clip3)"><path d="M40.6066 181.938C53.0015 181.938 63.0496 191.986 63.0496 204.381L63.0496 301.393C63.0496 313.788 53.0015 323.836 40.6066 323.836L40.4151 323.836C28.0202 323.836 17.9721 313.788 17.9721 301.393L17.9721 204.381C17.9721 191.986 28.0202 181.938 40.4151 181.938Z" fill="#D38D5F" fill-rule="evenodd" transform="matrix(0.998377 -0.0609306 0.0825081 0.996825 740.295 218.825)"/><path d="M35.1751 215.923C43.0486 215.923 49.4313 222.5 49.4313 230.613L49.4313 294.113C49.4313 302.227 43.0486 308.804 35.1751 308.804L35.1751 308.804C27.3016 308.804 20.9189 302.227 20.9189 294.113L20.9189 230.613C20.9189 222.5 27.3016 215.923 35.1751 215.923Z" fill="#784421" fill-rule="evenodd" fill-opacity="0.242902" transform="matrix(0.986275 -0.225922 0.0729739 1.00918 740.295 218.825)"/><path d="M739.677 402.954C739.007 402.011 738.183 400.411 737.846 399.398 737.021 396.918 735.734 377.398 736.214 374.625 737.145 369.234 740.996 365.084 746.214 363.848 748.913 363.209 759.559 362.628 760.976 363.043 762.648 363.532 763.692 364.875 764.178 367.159 764.52 368.765 764.431 371.743 765.993 373.104 767.202 374.158 769.367 374.686 770.744 373.865 772.957 372.546 773.075 368.759 773.3 366.571 773.524 364.395 774.633 362.568 776.068 362.01 776.562 361.818 780.388 361.45 784.571 361.192 788.754 360.934 792.629 360.677 793.181 360.62 796.552 360.277 805.916 359.878 808.371 359.973 824.464 360.6 842.178 372.045 851.978 385.807 855.725 391.068 856.566 398.372 855.859 404.792 855.675 406.467 855.456 409.127 853.794 409.406 848.048 410.371 846.776 399.744 841.833 396.661 837.177 393.757 832.692 392.84 826.097 391.825 823.134 391.368 817.016 391.068 816.358 391.346 816.174 391.424 816.172 393.705 816.353 396.415 816.676 401.214 816.661 401.38 815.777 402.815 815.075 403.953 814.629 404.387 813.816 404.724 812.872 405.116 781.202 407.159 779.462 406.941 778.54 406.826 776.794 405.587 776.35 404.735 776.16 404.371 775.893 403.519 775.758 402.842 775.396 401.041 774.804 397.385 772.633 396.376 770.81 395.528 768.08 396.329 766.786 397.87 765.576 399.314 766.571 402.176 766.359 403.507 765.921 406.27 765.176 407.292 763.231 407.799 761.041 408.37 750.317 408.815 748.142 408.425 746.248 408.086 745.646 407.82 743.434 406.352 741.313 404.945 740.697 404.387 739.677 402.954Z"/></g></g></g></g></svg>