<svg width="117" height="117" xmlns="http://www.w3.org/2000/svg" xmlns:xlink="http://www.w3.org/1999/xlink" overflow="hidden"><defs><clipPath id="clip0"><rect x="1260" y="905" width="117" height="117"/></clipPath></defs><g clip-path="url(#clip0)" transform="translate(-1260 -905)"><path d="M1318.5 905.001C1350.8 905.001 1377 931.2 1377 963.501 1377 995.802 1350.8 1022 1318.5 1022 1286.2 1022 1260 995.802 1260 963.501 1260 931.2 1286.2 905.001 1318.5 905.001Z" fill="#FFCC4D"/><path d="M1318.5 999.633C1330.04 999.633 1340.32 992.223 1344.61 981.739L1318.5 979.445 1292.39 981.739C1296.68 992.223 1306.96 999.633 1318.5 999.633Z" fill="#DE5959"/><path d="M1290.97 977.266C1291.31 978.803 1291.8 980.294 1292.39 981.739L1344.61 981.739C1345.2 980.294 1345.66 978.803 1346.03 977.266Z" fill="#F8F2F2"/><path d="M1354.63 960.633C1353.37 960.633 1352.34 959.601 1352.34 958.339 1352.34 952.489 1347.59 947.717 1341.72 947.717 1335.84 947.717 1331.12 952.489 1331.12 958.339 1331.12 959.601 1330.09 960.633 1328.82 960.633 1327.56 960.633 1326.53 959.601 1326.53 958.339 1326.53 949.966 1333.34 943.129 1341.74 943.129 1350.14 943.129 1356.95 949.943 1356.95 958.339 1356.93 959.601 1355.89 960.633 1354.63 960.633Z" fill="#5D3F3F"/><path d="M1308.18 960.633C1306.91 960.633 1305.88 959.601 1305.88 958.339 1305.88 952.489 1301.13 947.717 1295.26 947.717 1289.39 947.717 1284.64 952.466 1284.64 958.339 1284.64 959.601 1283.61 960.633 1282.34 960.633 1281.08 960.633 1280.05 959.601 1280.05 958.339 1280.05 949.966 1286.86 943.129 1295.26 943.129 1303.66 943.129 1310.47 949.966 1310.47 958.339 1310.47 959.601 1309.44 960.633 1308.18 960.633Z" fill="#5D3F3F"/><text font-family="Arial,Arial_MSFontService,sans-serif" font-weight="700" font-size="32" transform="matrix(0.713049 0 0 0.713049 1296.38 1052)">J<tspan font-size="32" x="14.4531" y="0">O</tspan><tspan font-size="32" x="38.8282" y="0">Y</tspan><tspan font-size="32" x="210.051" y="8.41457">S</tspan><tspan font-size="32" x="226.207" y="8.41457">A</tspan><tspan font-size="32" x="252.176" y="8.41457">D</tspan><tspan font-size="32" x="275.91" y="8.41457">N</tspan><tspan font-size="32" x="301.379" y="8.41457">E</tspan><tspan font-size="32" x="319.739" y="8.41457">S</tspan><tspan font-size="32" x="335.895" y="8.41457">S</tspan><tspan font-size="32" x="474.277" y="8.41457">A</tspan><tspan font-size="32" x="500.246" y="8.41457">N</tspan><tspan font-size="32" x="525.715" y="8.41457">G</tspan><tspan font-size="32" x="547.246" y="8.41457">E</tspan><tspan font-size="32" x="565.605" y="8.41457">R</tspan><tspan font-size="32" x="501.601" y="232.803">F</tspan><tspan font-size="32" x="520.57" y="232.803">E</tspan><tspan font-size="32" x="538.93" y="232.803">A</tspan><tspan font-size="32" x="564.898" y="232.803">R</tspan><tspan font-size="32" x="-55.3365" y="232.803">S</tspan><tspan font-size="32" x="-39.1803" y="232.803">U</tspan><tspan font-size="32" x="-14.196" y="232.803">R</tspan><tspan font-size="32" x="7.71027" y="232.803">P</tspan><tspan font-size="32" x="27.3823" y="232.803">R</tspan><tspan font-size="32" x="49.2885" y="232.803">I</tspan><tspan font-size="32" x="59.7105" y="232.803">S</tspan><tspan font-size="32" x="75.8665" y="232.803">E</tspan><tspan font-size="32" x="221.694" y="239.815">D</tspan><tspan font-size="32" x="245.429" y="239.815">I</tspan><tspan font-size="32" x="255.851" y="239.815">S</tspan><tspan font-size="32" x="272.007" y="239.815">G</tspan><tspan font-size="32" x="293.538" y="239.815">U</tspan><tspan font-size="32" x="318.522" y="239.815">S</tspan><tspan font-size="32" x="334.678" y="239.815">T</tspan></text></g></svg>