<svg width="64" height="181" xmlns="http://www.w3.org/2000/svg" xmlns:xlink="http://www.w3.org/1999/xlink" overflow="hidden"><defs><clipPath id="clip0"><rect x="759" y="82" width="64" height="181"/></clipPath></defs><g clip-path="url(#clip0)" transform="translate(-759 -82)"><path d="M137.631 134.974C136.92 133.196 137.499 130.558 137.501 128.694L137.51 115.198C137.52 100.437 136.907 85.5701 137.559 70.8201 137.678 68.1316 138.245 65.3929 138.996 62.7805 139.457 61.1763 140.464 59.3122 140.102 57.6512 139.536 55.0435 138.08 52.4079 137.076 49.894 136.699 48.9468 136.406 47.6738 135.326 47.0928 133.763 46.2513 131.395 46.761 129.66 46.8119 128.414 46.8484 126.577 46.5613 125.534 47.2752 124.606 47.9097 124.343 49.3389 123.981 50.2428 123 52.6934 121.705 55.1894 121.026 57.7105 120.611 59.2592 121.559 60.955 122.004 62.4507 122.752 64.9658 123.227 67.5514 123.428 70.1379 124.178 79.7811 123.689 89.722 123.681 99.3875L123.665 123.182C123.664 127.269 123.035 131.763 123.869 135.79" fill="#CDDBE0" transform="matrix(1.00321 0 0 1 660.246 35.3874)"/><path d="M151.512 130.852C157.408 130.852 162.187 135.631 162.187 141.526L162.187 141.526C162.187 147.422 157.408 152.201 151.512 152.201L109.158 152.201C103.262 152.201 98.4829 147.422 98.4829 141.526L98.4829 141.526C98.4829 135.631 103.262 130.852 109.158 130.852Z" fill="#76222D" fill-rule="evenodd" transform="matrix(1.00321 0 0 1 660.246 35.3874)"/><path d="M141.807 130.852C145.55 130.852 148.585 133.886 148.585 137.63L148.585 220.835C148.585 224.579 145.55 227.613 141.807 227.613L118.862 227.613C115.119 227.613 112.084 224.579 112.084 220.835L112.084 137.63C112.084 133.886 115.119 130.852 118.862 130.852Z" fill="#76222D" fill-rule="evenodd" transform="matrix(1.00321 0 0 1 660.246 35.3874)"/><path d="M139.632 154.267C141.629 154.267 143.248 157.302 143.248 161.045L143.248 208.783C143.248 212.526 141.629 215.561 139.632 215.561L139.632 215.561C137.635 215.561 136.017 212.526 136.017 208.783L136.017 161.045C136.017 157.302 137.635 154.267 139.632 154.267Z" fill-rule="evenodd" transform="matrix(1.00321 0 0 1 660.246 35.3874)"/><path d="M121.21 154.267C123.207 154.267 124.825 157.302 124.825 161.045L124.825 208.783C124.825 212.526 123.207 215.561 121.21 215.561L121.21 215.561C119.213 215.561 117.594 212.526 117.594 208.783L117.594 161.045C117.594 157.302 119.213 154.267 121.21 154.267Z" fill-rule="evenodd" transform="matrix(1.00321 0 0 1 660.246 35.3874)"/></g></svg>