<svg width="117" height="117" xmlns="http://www.w3.org/2000/svg" xmlns:xlink="http://www.w3.org/1999/xlink" overflow="hidden"><defs><clipPath id="clip0"><rect x="732" y="905" width="117" height="117"/></clipPath></defs><g clip-path="url(#clip0)" transform="translate(-732 -905)"><path d="M848.999 963.501C848.999 995.809 822.807 1022 790.499 1022 758.194 1022 731.999 995.809 731.999 963.501 731.999 931.196 758.194 905.001 790.499 905.001 822.807 905.001 848.999 931.196 848.999 963.501" fill="#FFCC4D"/><path d="M777.499 958.626C777.499 958.998 777.486 959.37 777.46 959.741 777.434 960.111 777.395 960.479 777.343 960.845 777.291 961.21 777.226 961.571 777.149 961.928 777.072 962.284 776.982 962.635 776.88 962.979 776.779 963.323 776.665 963.659 776.54 963.988 776.414 964.316 776.278 964.635 776.13 964.945 775.982 965.255 775.824 965.554 775.655 965.842 775.486 966.13 775.307 966.405 775.119 966.669 774.931 966.932 774.734 967.182 774.529 967.418 774.323 967.655 774.109 967.877 773.888 968.083 773.667 968.29 773.439 968.482 773.204 968.657 772.969 968.833 772.729 968.992 772.483 969.135 772.238 969.277 771.987 969.403 771.733 969.511 771.478 969.619 771.22 969.709 770.959 969.782 770.698 969.855 770.435 969.909 770.17 969.946 769.906 969.982 769.64 970.001 769.374 970.001 769.108 970.001 768.842 969.982 768.578 969.946 768.313 969.909 768.05 969.855 767.789 969.782 767.528 969.709 767.27 969.619 767.016 969.511 766.761 969.403 766.51 969.277 766.265 969.135 766.019 968.992 765.779 968.833 765.544 968.657 765.309 968.482 765.081 968.29 764.86 968.083 764.639 967.877 764.425 967.655 764.22 967.418 764.014 967.182 763.817 966.932 763.629 966.669 763.441 966.405 763.262 966.13 763.093 965.842 762.924 965.554 762.766 965.255 762.618 964.945 762.471 964.635 762.334 964.316 762.208 963.988 762.083 963.659 761.969 963.323 761.867 962.979 761.766 962.635 761.676 962.284 761.599 961.928 761.522 961.571 761.457 961.21 761.405 960.845 761.353 960.479 761.314 960.111 761.288 959.741 761.262 959.37 761.249 958.998 761.249 958.626 761.249 958.253 761.262 957.881 761.288 957.511 761.314 957.14 761.353 956.772 761.405 956.407 761.457 956.041 761.522 955.68 761.599 955.324 761.676 954.967 761.766 954.617 761.867 954.273 761.969 953.928 762.083 953.592 762.208 953.263 762.334 952.935 762.47 952.616 762.618 952.306 762.766 951.996 762.924 951.697 763.093 951.409 763.262 951.121 763.441 950.846 763.629 950.582 763.817 950.319 764.014 950.069 764.22 949.833 764.425 949.596 764.639 949.375 764.86 949.168 765.081 948.961 765.309 948.769 765.544 948.594 765.779 948.418 766.019 948.259 766.265 948.117 766.51 947.974 766.761 947.849 767.016 947.74 767.27 947.632 767.528 947.542 767.789 947.469 768.05 947.397 768.313 947.342 768.578 947.305 768.842 947.269 769.108 947.251 769.374 947.251 769.64 947.251 769.906 947.269 770.17 947.306 770.435 947.342 770.698 947.397 770.959 947.469 771.22 947.542 771.478 947.632 771.733 947.74 771.987 947.849 772.238 947.974 772.483 948.117 772.729 948.259 772.969 948.418 773.204 948.594 773.439 948.769 773.667 948.961 773.888 949.168 774.109 949.375 774.323 949.596 774.529 949.833 774.734 950.069 774.931 950.319 775.119 950.582 775.307 950.846 775.486 951.121 775.655 951.409 775.824 951.697 775.982 951.996 776.13 952.306 776.278 952.616 776.414 952.935 776.54 953.263 776.665 953.592 776.779 953.928 776.88 954.273 776.982 954.617 777.072 954.967 777.149 955.324 777.226 955.68 777.291 956.041 777.343 956.407 777.395 956.772 777.434 957.14 777.46 957.511 777.486 957.881 777.499 958.253 777.499 958.626Z" fill="#664500"/><path d="M819.749 958.626C819.749 958.998 819.736 959.37 819.71 959.741 819.684 960.111 819.644 960.479 819.593 960.845 819.541 961.21 819.476 961.571 819.399 961.928 819.322 962.284 819.232 962.635 819.13 962.979 819.029 963.323 818.915 963.659 818.789 963.988 818.664 964.316 818.527 964.635 818.38 964.945 818.232 965.255 818.073 965.554 817.904 965.842 817.736 966.13 817.557 966.405 817.369 966.669 817.181 966.932 816.984 967.182 816.778 967.418 816.573 967.655 816.359 967.877 816.138 968.083 815.916 968.29 815.689 968.482 815.454 968.657 815.219 968.833 814.979 968.992 814.733 969.135 814.487 969.277 814.237 969.403 813.982 969.511 813.728 969.619 813.47 969.709 813.209 969.782 812.948 969.855 812.685 969.909 812.42 969.946 812.156 969.982 811.89 970.001 811.624 970.001 811.358 970.001 811.092 969.982 810.828 969.946 810.563 969.909 810.3 969.855 810.039 969.782 809.778 969.709 809.52 969.619 809.265 969.511 809.01 969.403 808.76 969.277 808.515 969.135 808.269 968.992 808.028 968.833 807.794 968.657 807.559 968.482 807.331 968.29 807.11 968.083 806.889 967.877 806.675 967.655 806.469 967.418 806.264 967.182 806.067 966.932 805.879 966.669 805.69 966.405 805.512 966.13 805.343 965.842 805.174 965.554 805.016 965.255 804.868 964.945 804.72 964.635 804.584 964.316 804.458 963.988 804.333 963.659 804.219 963.323 804.117 962.979 804.016 962.635 803.926 962.284 803.849 961.928 803.772 961.571 803.707 961.21 803.655 960.845 803.603 960.479 803.564 960.111 803.538 959.741 803.512 959.37 803.499 958.998 803.499 958.626 803.499 958.253 803.512 957.881 803.538 957.511 803.564 957.14 803.603 956.772 803.655 956.407 803.707 956.041 803.772 955.68 803.849 955.324 803.926 954.967 804.016 954.617 804.117 954.273 804.219 953.928 804.333 953.592 804.458 953.263 804.584 952.935 804.72 952.616 804.868 952.306 805.016 951.996 805.174 951.697 805.343 951.409 805.512 951.121 805.69 950.846 805.879 950.582 806.067 950.319 806.264 950.069 806.469 949.833 806.675 949.596 806.889 949.375 807.11 949.168 807.331 948.961 807.559 948.769 807.794 948.594 808.028 948.418 808.269 948.259 808.515 948.117 808.76 947.974 809.01 947.849 809.265 947.74 809.52 947.632 809.778 947.542 810.039 947.469 810.3 947.397 810.563 947.342 810.828 947.305 811.092 947.269 811.358 947.251 811.624 947.251 811.89 947.251 812.156 947.269 812.42 947.306 812.685 947.342 812.948 947.397 813.209 947.469 813.47 947.542 813.728 947.632 813.982 947.74 814.237 947.849 814.487 947.974 814.733 948.117 814.979 948.259 815.219 948.418 815.454 948.594 815.689 948.769 815.916 948.961 816.138 949.168 816.359 949.375 816.573 949.596 816.778 949.833 816.984 950.069 817.181 950.319 817.369 950.582 817.557 950.846 817.736 951.121 817.904 951.409 818.073 951.697 818.232 951.996 818.38 952.306 818.527 952.616 818.664 952.935 818.789 953.263 818.915 953.592 819.029 953.928 819.13 954.273 819.232 954.617 819.322 954.967 819.399 955.324 819.476 955.68 819.541 956.041 819.593 956.407 819.644 956.772 819.683 957.14 819.71 957.511 819.736 957.881 819.749 958.253 819.749 958.626Z" fill="#664500"/><path d="M808.325 995.607C808.289 995.464 804.604 981.376 790.499 981.376 776.394 981.376 772.708 995.464 772.673 995.607 772.5 996.299 772.816 997.008 773.427 997.375 774.038 997.739 774.834 997.655 775.364 997.18 775.393 997.157 778.656 994.375 790.499 994.375 802.166 994.375 805.504 997.073 805.631 997.18 805.94 997.476 806.343 997.625 806.749 997.625 807.022 997.625 807.298 997.557 807.548 997.417 808.185 997.057 808.504 996.316 808.325 995.607L808.325 995.607Z" fill="#664500"/><path d="M764.499 1002.5C764.499 1011.48 757.226 1018.75 748.249 1018.75 739.273 1018.75 731.999 1011.48 731.999 1002.5 731.999 993.524 744.999 970.001 748.249 970.001 751.499 970.001 764.499 993.524 764.499 1002.5Z" fill="#5DADEC"/><path d="M829.499 947.251C811.448 947.251 804.142 933.058 803.84 932.453 803.037 930.848 803.687 928.895 805.293 928.092 806.892 927.289 808.842 927.936 809.648 929.532 809.892 930.006 815.566 940.751 829.499 940.751 831.296 940.751 832.749 942.207 832.749 944.001 832.749 945.798 831.296 947.251 829.499 947.251ZM751.499 947.251C749.705 947.251 748.249 945.795 748.249 944.001 748.249 942.207 749.705 940.751 751.499 940.751 768.019 940.751 770.986 930.611 771.106 930.179 771.578 928.463 773.349 927.423 775.068 927.874 776.79 928.326 777.834 930.062 777.401 931.791 777.242 932.421 773.287 947.251 751.499 947.251Z" fill="#664500"/><text font-family="Arial,Arial_MSFontService,sans-serif" font-weight="700" font-size="32" transform="matrix(0.713049 0 0 0.713049 590.096 1052)">J<tspan font-size="32" x="14.4531" y="0">O</tspan><tspan font-size="32" x="38.8281" y="0">Y</tspan><tspan font-size="32" x="210.051" y="8.41457">S</tspan><tspan font-size="32" x="226.207" y="8.41457">A</tspan><tspan font-size="32" x="252.176" y="8.41457">D</tspan><tspan font-size="32" x="275.91" y="8.41457">N</tspan><tspan font-size="32" x="301.379" y="8.41457">E</tspan><tspan font-size="32" x="319.739" y="8.41457">S</tspan><tspan font-size="32" x="335.895" y="8.41457">S</tspan><tspan font-size="32" x="474.277" y="8.41457">A</tspan><tspan font-size="32" x="500.246" y="8.41457">N</tspan><tspan font-size="32" x="525.715" y="8.41457">G</tspan><tspan font-size="32" x="547.246" y="8.41457">E</tspan><tspan font-size="32" x="565.605" y="8.41457">R</tspan><tspan font-size="32" x="501.601" y="232.803">F</tspan><tspan font-size="32" x="520.57" y="232.803">E</tspan><tspan font-size="32" x="538.93" y="232.803">A</tspan><tspan font-size="32" x="564.898" y="232.803">R</tspan><tspan font-size="32" x="-55.3366" y="232.803">S</tspan><tspan font-size="32" x="-39.1803" y="232.803">U</tspan><tspan font-size="32" x="-14.196" y="232.803">R</tspan><tspan font-size="32" x="7.71036" y="232.803">P</tspan><tspan font-size="32" x="27.3823" y="232.803">R</tspan><tspan font-size="32" x="49.2884" y="232.803">I</tspan><tspan font-size="32" x="59.7104" y="232.803">S</tspan><tspan font-size="32" x="75.8664" y="232.803">E</tspan><tspan font-size="32" x="221.694" y="239.815">D</tspan><tspan font-size="32" x="245.429" y="239.815">I</tspan><tspan font-size="32" x="255.851" y="239.815">S</tspan><tspan font-size="32" x="272.007" y="239.815">G</tspan><tspan font-size="32" x="293.538" y="239.815">U</tspan><tspan font-size="32" x="318.522" y="239.815">S</tspan><tspan font-size="32" x="334.678" y="239.815">T</tspan></text></g></svg>