<svg width="117" height="117" xmlns="http://www.w3.org/2000/svg" xmlns:xlink="http://www.w3.org/1999/xlink" overflow="hidden"><defs><clipPath id="clip0"><rect x="997" y="905" width="117" height="117"/></clipPath></defs><g clip-path="url(#clip0)" transform="translate(-997 -905)"><path d="M1114 963.501C1114 995.809 1087.81 1022 1055.5 1022 1023.19 1022 996.999 995.809 996.999 963.501 996.999 931.196 1023.19 905.001 1055.5 905.001 1087.81 905.001 1114 931.196 1114 963.501" fill="#FFCC4D"/><path d="M1079.83 1002.11C1079.68 1001.53 1076.03 987.876 1055.5 987.876 1034.97 987.876 1031.32 1001.53 1031.17 1002.11 1030.99 1002.81 1031.31 1003.54 1031.94 1003.91 1032.58 1004.26 1033.37 1004.16 1033.89 1003.66 1033.95 1003.6 1040.24 997.625 1055.5 997.625 1070.75 997.625 1077.05 1003.6 1077.1 1003.65 1077.42 1003.96 1077.83 1004.13 1078.25 1004.13 1078.52 1004.13 1078.8 1004.06 1079.05 1003.92 1079.69 1003.55 1080 1002.82 1079.83 1002.11L1079.83 1002.11ZM1048.05 961.203C1037.47 950.624 1020.47 950.501 1019.75 950.501 1017.96 950.501 1016.5 951.953 1016.5 953.744 1016.5 955.538 1017.95 956.994 1019.75 957.001 1019.84 957.001 1026 957.072 1032.69 959.396 1030.76 961.476 1029.5 964.706 1029.5 968.376 1029.5 974.661 1033.14 979.751 1037.62 979.751 1042.11 979.751 1045.75 974.661 1045.75 968.376 1045.75 967.81 1045.69 967.271 1045.63 966.728 1045.67 966.728 1045.71 966.751 1045.75 966.751 1046.58 966.751 1047.41 966.432 1048.05 965.798 1049.32 964.528 1049.32 962.474 1048.05 961.203ZM1091.25 950.501C1090.53 950.501 1073.53 950.624 1062.95 961.203 1061.68 962.474 1061.68 964.528 1062.95 965.798 1063.58 966.432 1064.42 966.751 1065.25 966.751 1065.29 966.751 1065.33 966.728 1065.37 966.728 1065.31 967.271 1065.25 967.81 1065.25 968.376 1065.25 974.661 1068.89 979.751 1073.37 979.751 1077.86 979.751 1081.5 974.661 1081.5 968.376 1081.5 964.706 1080.23 961.476 1078.31 959.396 1085 957.072 1091.16 957.001 1091.26 957.001 1093.05 956.994 1094.5 955.538 1094.5 953.744 1094.49 951.953 1093.04 950.501 1091.25 950.501Z" fill="#664500"/><text font-family="Arial,Arial_MSFontService,sans-serif" font-weight="700" font-size="32" transform="matrix(0.713049 0 0 0.713049 676.945 1052)">J<tspan font-size="32" x="14.453" y="0">O</tspan><tspan font-size="32" x="38.8281" y="0">Y</tspan><tspan font-size="32" x="210.051" y="8.41457">S</tspan><tspan font-size="32" x="226.207" y="8.41457">A</tspan><tspan font-size="32" x="252.176" y="8.41457">D</tspan><tspan font-size="32" x="275.91" y="8.41457">N</tspan><tspan font-size="32" x="301.379" y="8.41457">E</tspan><tspan font-size="32" x="319.739" y="8.41457">S</tspan><tspan font-size="32" x="335.895" y="8.41457">S</tspan><tspan font-size="32" x="474.277" y="8.41457">A</tspan><tspan font-size="32" x="500.246" y="8.41457">N</tspan><tspan font-size="32" x="525.715" y="8.41457">G</tspan><tspan font-size="32" x="547.246" y="8.41457">E</tspan><tspan font-size="32" x="565.605" y="8.41457">R</tspan><tspan font-size="32" x="501.601" y="232.803">F</tspan><tspan font-size="32" x="520.57" y="232.803">E</tspan><tspan font-size="32" x="538.93" y="232.803">A</tspan><tspan font-size="32" x="564.898" y="232.803">R</tspan><tspan font-size="32" x="-55.3366" y="232.803">S</tspan><tspan font-size="32" x="-39.1804" y="232.803">U</tspan><tspan font-size="32" x="-14.196" y="232.803">R</tspan><tspan font-size="32" x="7.71027" y="232.803">P</tspan><tspan font-size="32" x="27.3822" y="232.803">R</tspan><tspan font-size="32" x="49.2884" y="232.803">I</tspan><tspan font-size="32" x="59.7104" y="232.803">S</tspan><tspan font-size="32" x="75.8664" y="232.803">E</tspan><tspan font-size="32" x="221.694" y="239.815">D</tspan><tspan font-size="32" x="245.429" y="239.815">I</tspan><tspan font-size="32" x="255.851" y="239.815">S</tspan><tspan font-size="32" x="272.007" y="239.815">G</tspan><tspan font-size="32" x="293.538" y="239.815">U</tspan><tspan font-size="32" x="318.522" y="239.815">S</tspan><tspan font-size="32" x="334.678" y="239.815">T</tspan></text></g></svg>